<?xml version="1.0" encoding="utf-8"?>
<!-- Generator: Adobe Illustrator 28.0.0, SVG Export Plug-In . SVG Version: 6.00 Build 0)  -->
<svg version="1.1" id="Layer_1" xmlns="http://www.w3.org/2000/svg" xmlns:xlink="http://www.w3.org/1999/xlink" x="0px" y="0px"
	 viewBox="0 0 1080 1080" style="enable-background:new 0 0 1080 1080;" xml:space="preserve">
<style type="text/css">
	.st0{enable-background:new    ;}
	.st1{fill:#1B2A39;}
	.st2{fill:#01FCFB;}
	.st3{fill-rule:evenodd;clip-rule:evenodd;fill:#01FCFB;}
</style>
<g class="st0">
	<path class="st1" d="M689.5,656.2c5.6,0,10.3,0.9,14.1,2.8c3.9,1.9,6.8,4.5,8.8,7.9c2,3.4,3,7.4,3,12.1c0,2.8-0.4,5.5-1.2,8.3
		c-0.8,2.8-2.1,5.3-4,7.6c-1.8,2.3-4.2,4.1-7.3,5.5c-3,1.4-6.8,2.1-11.2,2.1h-9.6v21.4H669v-67.6H689.5z M691.8,689.5
		c2,0,3.7-0.4,5.1-1.1c1.3-0.7,2.4-1.6,3.2-2.7c0.8-1.1,1.3-2.2,1.7-3.4c0.3-1.2,0.5-2.2,0.5-3c0-0.7-0.1-1.6-0.3-2.7
		c-0.2-1.1-0.7-2.3-1.3-3.4c-0.7-1.2-1.7-2.1-3.1-2.9c-1.4-0.8-3.2-1.2-5.6-1.2h-9.6v20.4H691.8z"/>
	<path class="st1" d="M747.9,656.2c4.2,0,8,0.5,11.3,1.6c3.3,1.1,6.1,2.6,8.3,4.6c2.2,2,3.9,4.4,5.1,7.2c1.2,2.8,1.7,5.9,1.7,9.4
		c0,2.8-0.4,5.5-1.2,8.3s-2.2,5.3-4,7.5c-1.9,2.3-4.3,4.1-7.4,5.5c-3.1,1.4-6.9,2.1-11.4,2.1h-9.6v21.5h-13.3v-67.6H747.9z
		 M750.2,689.5c2,0,3.7-0.3,5.1-1c1.3-0.7,2.4-1.5,3.2-2.6c0.8-1,1.3-2.1,1.7-3.3c0.3-1.1,0.5-2.2,0.5-3.2c0-0.7-0.1-1.7-0.3-2.8
		c-0.2-1.1-0.7-2.3-1.3-3.4c-0.7-1.2-1.7-2.1-3.1-2.9c-1.4-0.8-3.2-1.2-5.6-1.2h-9.6v20.4H750.2z M762.7,697.7l16.7,26.1h-15.5
		l-17.1-25.7L762.7,697.7z"/>
	<path class="st1" d="M790.4,656.2h46.1v12.9h-32.8v14.4h29v12.9h-29v14.6h34.1v12.9h-47.4V656.2z"/>
	<path class="st1" d="M887.7,672.5c-2.6-1.4-5.2-2.6-7.9-3.5c-2.7-0.9-5.2-1.4-7.5-1.4c-2.9,0-5.1,0.6-6.8,1.7
		c-1.7,1.2-2.5,2.9-2.5,5.2c0,1.6,0.6,3,1.9,4.3c1.3,1.3,2.9,2.4,4.9,3.4c2,1,4.1,1.9,6.2,2.7c2,0.7,3.9,1.6,5.8,2.6
		c1.9,1,3.7,2.3,5.2,3.8c1.5,1.5,2.8,3.4,3.7,5.6c0.9,2.2,1.4,5,1.4,8.2c0,3.4-0.9,6.6-2.7,9.6c-1.8,2.9-4.4,5.3-7.8,7.1
		c-3.4,1.8-7.7,2.7-12.7,2.7c-2.6,0-5.2-0.3-7.9-0.8s-5.3-1.3-7.9-2.4c-2.6-1.1-5.1-2.4-7.4-4.1l5.9-10.4c1.6,1.2,3.3,2.2,5.2,3.1
		c1.9,0.9,3.8,1.6,5.6,2.1c1.9,0.5,3.6,0.7,5.2,0.7c1.6,0,3.2-0.2,4.8-0.7c1.6-0.5,3-1.2,4-2.3c1.1-1.1,1.6-2.6,1.6-4.6
		c0-1.3-0.4-2.6-1.3-3.7c-0.9-1.1-2.1-2.1-3.6-3c-1.5-0.9-3.1-1.7-4.9-2.4c-2.1-0.8-4.2-1.7-6.4-2.8c-2.2-1-4.3-2.3-6.2-3.8
		c-1.9-1.5-3.5-3.4-4.7-5.6c-1.2-2.2-1.8-5-1.8-8.2c0-3.9,0.9-7.3,2.6-10.2c1.7-2.9,4.2-5.2,7.4-6.8c3.2-1.7,6.9-2.6,11-2.8
		c5.5,0,9.9,0.6,13.3,1.9c3.4,1.3,6.4,2.8,9.1,4.6L887.7,672.5z"/>
	<path class="st1" d="M941.3,672.5c-2.6-1.4-5.2-2.6-7.9-3.5c-2.7-0.9-5.2-1.4-7.5-1.4c-2.9,0-5.1,0.6-6.8,1.7
		c-1.7,1.2-2.5,2.9-2.5,5.2c0,1.6,0.6,3,1.9,4.3c1.3,1.3,2.9,2.4,4.9,3.4c2,1,4.1,1.9,6.2,2.7c2,0.7,3.9,1.6,5.8,2.6
		c1.9,1,3.7,2.3,5.2,3.8c1.5,1.5,2.8,3.4,3.7,5.6c0.9,2.2,1.4,5,1.4,8.2c0,3.4-0.9,6.6-2.7,9.6c-1.8,2.9-4.4,5.3-7.8,7.1
		c-3.4,1.8-7.7,2.7-12.7,2.7c-2.6,0-5.2-0.3-7.9-0.8s-5.3-1.3-7.9-2.4c-2.6-1.1-5.1-2.4-7.4-4.1l5.9-10.4c1.6,1.2,3.3,2.2,5.2,3.1
		c1.9,0.9,3.8,1.6,5.6,2.1c1.9,0.5,3.6,0.7,5.2,0.7c1.6,0,3.2-0.2,4.8-0.7c1.6-0.5,3-1.2,4-2.3c1.1-1.1,1.6-2.6,1.6-4.6
		c0-1.3-0.4-2.6-1.3-3.7c-0.9-1.1-2.1-2.1-3.6-3c-1.5-0.9-3.1-1.7-4.9-2.4c-2.1-0.8-4.2-1.7-6.4-2.8c-2.2-1-4.3-2.3-6.2-3.8
		c-1.9-1.5-3.5-3.4-4.7-5.6c-1.2-2.2-1.8-5-1.8-8.2c0-3.9,0.9-7.3,2.6-10.2c1.7-2.9,4.2-5.2,7.4-6.8c3.2-1.7,6.9-2.6,11-2.8
		c5.5,0,9.9,0.6,13.3,1.9c3.4,1.3,6.4,2.8,9.1,4.6L941.3,672.5z"/>
	<path class="st1" d="M958.7,656.2h46.1v12.9h-32.8v14.4h29v12.9h-29v14.6h34.1v12.9h-47.4V656.2z"/>
</g>
<g>
	<path class="st1" d="M1002.7,491.5c0,16.4-3.5,31.9-9.7,45.9c-5.4,12.3-13,23.5-22.2,33c-12.1-9.5-27.2-15.2-43.6-15.7
		c13.5-8.1,24.2-20.4,30.2-35.2c3.6-8.7,5.6-18.2,5.6-28.1c0-40.8-33-73.8-73.8-73.8s-73.8,33-73.8,73.8c0,23.6,11.1,44.6,28.3,58.1
		c12.1,9.5,27.2,15.2,43.6,15.7c-13.5,8.1-24.2,20.4-30.2,35.1c-13-3.8-25-9.9-35.6-17.8c-27.8-20.7-45.8-53.8-45.8-91.1
		c0-62.7,50.8-113.5,113.5-113.5S1002.7,428.8,1002.7,491.5L1002.7,491.5z"/>
</g>
<g>
	<g>
		<path class="st2" d="M841.6,366.2c2.9-1.1,4.4-4.3,3.4-7.2l-11.3-31c-1.1-2.9-4.3-4.4-7.2-3.4s-4.4,4.3-3.4,7.2l11.3,31
			C835.4,365.7,838.7,367.2,841.6,366.2L841.6,366.2z"/>
	</g>
	<g>
		<path class="st2" d="M1042.4,425.3l-31.1,11.3c-2.9,1.1-4.4,4.3-3.4,7.2c1.1,2.9,4.3,4.4,7.2,3.4l31.1-11.3
			c2.9-1.1,4.4-4.3,3.4-7.2S1045.4,424.3,1042.4,425.3L1042.4,425.3z"/>
	</g>
	<g>
		<path class="st2" d="M756.5,529.2l-31.1,11.3c-2.9,1.1-4.4,4.3-3.4,7.2c1.1,2.9,4.3,4.4,7.2,3.4l31.1-11.3
			c2.9-1.1,4.4-4.3,3.4-7.2S759.4,528.1,756.5,529.2L756.5,529.2z"/>
	</g>
	<g>
		<path class="st2" d="M760.7,436c2.8,1.3,6.2,0.1,7.5-2.7c1.3-2.8,0.1-6.2-2.7-7.5l-29.9-14c-2.8-1.3-6.2-0.1-7.5,2.7
			c-1.3,2.8-0.1,6.2,2.7,7.5L760.7,436L760.7,436z"/>
	</g>
	<g>
		<path class="st2" d="M750.5,479.2l-12.3-0.3c-3.1-0.1-5.7,2.4-5.8,5.5s2.4,5.7,5.5,5.8l12.3,0.3c3.1,0.1,5.7-2.4,5.8-5.5
			C756,481.9,753.6,479.3,750.5,479.2L750.5,479.2z"/>
	</g>
	<g>
		<path class="st2" d="M792.1,390.2c2,2.3,5.6,2.5,8,0.5c2.3-2,2.6-5.6,0.5-7.9l-8.3-9.5c-2-2.3-5.6-2.6-8-0.5
			c-2.3,2.1-2.6,5.6-0.5,7.9L792.1,390.2L792.1,390.2z"/>
	</g>
	<g>
		<path class="st2" d="M889.2,358.4c3.1,0.1,5.7-2.4,5.8-5.5l0.3-12.6c0.1-3.1-2.4-5.7-5.5-5.8c-3.1-0.1-5.7,2.4-5.8,5.5l-0.3,12.6
			C883.6,355.7,886.1,358.3,889.2,358.4L889.2,358.4z"/>
	</g>
	<g>
		<path class="st2" d="M945.2,370.7c1.3-0.5,2.5-1.5,3.2-2.9l14-29.9c1.3-2.8,0.1-6.2-2.7-7.5c-2.8-1.3-6.2-0.1-7.5,2.7l-14,29.9
			c-1.3,2.8-0.1,6.2,2.7,7.5C942.3,371.2,943.9,371.2,945.2,370.7L945.2,370.7z"/>
	</g>
	<g>
		<path class="st2" d="M1001.1,386.8c-2.1-2.3-5.6-2.6-8-0.5l-9.2,8.1c-2.3,2-2.6,5.6-0.5,7.9c2,2.3,5.6,2.5,8,0.5l9.2-8.1
			C1002.9,392.7,1003.2,389.2,1001.1,386.8z"/>
	</g>
</g>
<g>
	<path class="st2" d="M881.5,586.2l66-19c2.9-0.8,6,0.9,6.9,3.8l0.7,2.6c0.8,2.9-0.9,6-3.8,6.9l-66,19c-2.9,0.8-6-0.9-6.9-3.8
		l-0.7-2.6C876.9,590.1,878.6,587,881.5,586.2z"/>
</g>
<g>
	<path class="st2" d="M886.2,602.5l66-19c2.9-0.8,6,0.9,6.9,3.8l0.7,2.6c0.8,2.9-0.9,6-3.8,6.9l-66,19c-2.9,0.8-6-0.9-6.9-3.8
		l-0.7-2.6C881.6,606.4,883.3,603.4,886.2,602.5z"/>
</g>
<g>
	<path class="st3" d="M927.5,633l7.9-2.3c13-3.8,20.8-16.8,18.3-29.8l-57.5,16.6C901,629.8,914.5,636.7,927.5,633z"/>
</g>
<g>
	<path class="st1" d="M896.2,474.6c-4-1.9-8.5-2.1-12.6-0.7c-4.2,1.4-7.5,4.5-9.5,8.4l-0.8,1.6l16.5,7.9l8-16.5L896.2,474.6
		L896.2,474.6z M888.2,487.1l-10-4.8c1.6-2.4,3.8-4.1,6.5-5.1c2.7-1,5.6-1,8.3-0.1L888.2,487.1z"/>
</g>
<g>
	<path class="st1" d="M904.8,456.5c-4.2-2-8.8-3.2-13.5-3.5c-4.9-0.3-9.7,0.4-14.4,2c-4.6,1.6-8.8,4.1-12.5,7.5
		c-3.5,3.2-6.3,7-8.3,11.2l-0.8,1.6l11.7,5.6l0.8-1.6c1.3-2.8,3.2-5.2,5.4-7.3c2.4-2.1,5-3.7,8.1-4.8c3-1.1,6.1-1.5,9.3-1.3
		c3,0.2,6,0.9,8.8,2.3l1.6,0.8l5.6-11.6L904.8,456.5L904.8,456.5z M899.2,464.3c-2.7-1.1-5.5-1.7-8.4-1.9c-3.6-0.2-7.2,0.3-10.7,1.5
		c-3.4,1.2-6.6,3.1-9.2,5.5c-2.2,2-4,4.3-5.4,6.8l-5.2-2.5c1.7-3.2,4-6.1,6.7-8.5c3.3-3,7-5.2,11.2-6.7c4.2-1.5,8.6-2,13-1.8
		c3.7,0.2,7.2,1,10.6,2.5L899.2,464.3L899.2,464.3z"/>
</g>
<g>
	<path class="st1" d="M913.4,438.7c-6.6-3.2-13.6-5-20.9-5.5c-7.5-0.5-15,0.6-22.2,3.1c-7.2,2.5-13.7,6.4-19.2,11.5
		c-5.4,4.9-9.7,10.8-12.9,17.3l-0.8,1.6l11.7,5.6l0.8-1.6c2.5-5.1,5.8-9.5,10-13.4c4.3-3.9,9.3-6.9,14.8-8.8s11.2-2.8,17-2.4
		c5.6,0.4,11,1.8,16.1,4.2l1.6,0.8l5.6-11.6L913.4,438.7L913.4,438.7z M907.8,446.4c-5-2.2-10.4-3.4-15.8-3.8
		c-6.2-0.4-12.5,0.5-18.5,2.6s-11.4,5.3-16,9.5c-4.1,3.7-7.4,8-10,12.9l-5.2-2.5c2.9-5.5,6.7-10.5,11.3-14.6
		c5.2-4.7,11.3-8.4,18-10.7c6.7-2.4,13.7-3.4,20.8-2.9c6.2,0.4,12.3,1.8,18,4.3L907.8,446.4L907.8,446.4z"/>
</g>
<g>
	<path class="st1" d="M890.4,494l-7.9,16.5l1.6,0.8c4,1.9,8.5,2.1,12.6,0.7c4.2-1.5,7.5-4.5,9.4-8.4l0.8-1.6L890.4,494L890.4,494z
		 M895.6,508.6c-2.7,0.9-5.6,1-8.3,0.1l4.8-10l10,4.8C900.5,505.9,898.2,507.7,895.6,508.6z"/>
</g>
<g>
	<path class="st1" d="M913.3,505l-0.8,1.6c-1.3,2.8-3.1,5.2-5.4,7.3c-2.3,2.1-5,3.8-8,4.8c-3,1.1-6.2,1.5-9.3,1.3
		c-3.1-0.2-6-0.9-8.8-2.3l-1.6-0.8l-5.6,11.6l1.6,0.8c4.3,2,8.8,3.3,13.6,3.5c4.9,0.3,9.7-0.4,14.4-2c4.6-1.6,8.8-4.1,12.5-7.4
		c3.5-3.2,6.3-7,8.3-11.2l0.8-1.6L913.3,505L913.3,505z M913.4,520.8c-3.3,3-7,5.2-11.2,6.7s-8.6,2.1-13,1.8
		c-3.7-0.2-7.2-1.1-10.6-2.5l2.5-5.2c2.7,1.1,5.5,1.7,8.5,1.9c3.6,0.2,7.2-0.3,10.7-1.5c3.5-1.2,6.6-3.1,9.3-5.5
		c2.1-2,4-4.2,5.4-6.8l5.2,2.5C918.4,515.4,916.1,518.3,913.4,520.8L913.4,520.8z"/>
</g>
<g>
	<path class="st1" d="M931.2,513.5l-0.8,1.6c-2.5,5.1-5.8,9.6-10,13.4c-4.3,3.9-9.3,6.9-14.8,8.8c-5.5,1.9-11.3,2.7-17.1,2.4
		c-5.6-0.4-11-1.7-16.1-4.2l-1.6-0.8l-5.6,11.6l1.6,0.8c6.6,3.1,13.7,5,20.9,5.5c7.5,0.5,15-0.6,22.2-3.1
		c7.2-2.5,13.6-6.4,19.2-11.4c5.4-4.9,9.7-10.8,12.9-17.4l0.8-1.6L931.2,513.5L931.2,513.5z M926.8,535.4c-5.2,4.7-11.3,8.3-18,10.7
		c-6.7,2.4-13.7,3.3-20.8,2.9c-6.2-0.4-12.2-1.8-18-4.4l2.5-5.2c5,2.2,10.4,3.4,15.8,3.8c6.3,0.4,12.5-0.5,18.5-2.6
		c6-2.1,11.4-5.3,16.1-9.5c4.1-3.7,7.4-8,10-12.9l5.2,2.5C935.2,526.3,931.4,531.2,926.8,535.4L926.8,535.4z"/>
</g>
<g>
	<g>
		<path class="st2" d="M159.5,722.6c0-5.9-0.7-14.1-2.2-24.7c-1.4-10.5-2.8-18.3-4.2-23.3c-1.4-5-3.1-8.9-5.1-11.8
			c-2.1-2.9-3.1-6.1-3.1-9.8c0-2.7,1-5,3-6.9c2-1.9,4.1-2.8,6.2-2.8c1.4,0,2.7,1,4,2.9c1.3,1.9,2,4.1,2,6.4c0,0.5-0.1,1.5-0.2,2.8
			s-0.2,2.5-0.2,3.4c0,4,0.9,10.9,2.8,20.7c1.9,9.8,3,16.5,3.5,20c0.5,3.5,0.9,6.5,1.2,9.1s0.5,5,0.5,7.4s-0.3,5.2-0.9,8.8
			s-1.2,6.2-1.9,7.8c-0.7,1.6-3.7,6.1-9,13.5s-12.6,13.3-21.7,17.6c-9.1,4.4-17,6.6-23.6,6.6c-15.3,0-26.5-3.8-33.5-11.3
			s-11-14.6-12-21.1c-0.9-6.5-1.4-10.2-1.4-11.1v-3.6c0-0.3,0.1-0.5,0.2-0.5c0.8,3.7,1.8,7.5,2.9,11.5c1.1,4,2.7,7.8,4.9,11.3
			s6.7,7.1,13.5,10.9c6.8,3.8,14.8,5.6,23.8,5.6c5,0,11-1.7,18-5.1c7-3.4,13.2-7.8,18.8-13.2c1.3-0.8,3.8-4.2,7.7-10.2
			S159.5,723.9,159.5,722.6L159.5,722.6z"/>
	</g>
	<g>
		<path class="st2" d="M220.8,723.6h-5.7c-3.5,7.5-6.8,13.6-10,18.3c-3.2,4.7-7.3,8.5-12.3,11.3c-5,2.9-11.3,4.3-18.8,4.3
			c-3.2,0-5.8-0.4-7.6-1.2s-3.9-2.4-6.3-4.8c-2.4-2.3-4.3-5-5.7-8.1c-1.4-3-2.6-8.4-3.5-16.2l0.5-3.6c0.9,0.4,1.7,1.8,2.6,4.2
			c0.8,2.3,2,5.7,3.4,10.1c2.8,6.3,5.9,9.8,9.4,10.7c3.4,0.8,6.3,1.3,8.6,1.3c2.3,0,4,0.1,5,0.2c5.5,0,10.9-3,16.1-9.1
			c5.3-6.1,7.9-12,7.9-17.8c-5.8,0-10-1.2-12.4-3.6s-3.7-5.6-3.7-9.6c0-2.9,1.2-6.8,3.6-11.8c2.4-5,5.5-7.5,9.3-7.5
			c5.2,0,9,3.5,11.6,10.6c1.7,7.2,2.5,11,2.6,11.4h5.5V723.6L220.8,723.6z M199.1,706.2c-0.7,0.6-1,1.3-1,2.3c0,1,0.5,2,1.5,3
			s2.2,1.4,3.7,1.4c0.6,0,1.2-0.1,1.7-0.2c0.5-0.1,0.7-0.7,0.7-1.6c0-2.1-0.6-3.5-1.7-4.3s-2.1-1.2-3-1.2
			C200.3,705.5,199.7,705.7,199.1,706.2L199.1,706.2z"/>
	</g>
	<g>
		<path class="st2" d="M217.7,712.7h11.7c1.2-0.4,2.4-0.8,3.7-1.3c1.2-0.5,1.8-1.2,1.8-2.1c-0.9-6.9-1.6-13.7-2.4-20.1
			c-0.8-6.5-1.4-11.1-1.8-13.7s-1.7-5.4-3.9-8.2c-2.2-2.8-3.2-5.9-3.2-9.3c0-2.7,1-5.1,3-7s4.1-2.9,6.3-2.9c1.4,0,2.8,1,4,2.9
			s1.9,4.1,1.9,6.4c0,0.6-0.1,1.7-0.2,3.4c-0.1,1.7-0.2,2.7-0.2,3c0,3.7,0.5,7.9,1.4,12.6s1.6,8.7,2.1,11.8
			c0.4,3.1,0.8,7.9,1.1,14.2s0.6,9.7,0.9,10.1c0.3,0.1,0.8,0.1,1.6,0.2s1.7,0.1,2.6,0.1h3.5v10.9h-10c-0.7,2.3-2.1,4.9-4.2,7.6
			c-2.1,2.8-4.4,4.5-6.8,5.4c0-1.4,0.4-3.4,1.3-5.8c0.9-2.5,1.4-4.8,1.7-7.2h-15.8L217.7,712.7L217.7,712.7z"/>
	</g>
	<g>
		<path class="st2" d="M247.9,712.7l4.4,0.1c4.5,0,8.9-0.1,13-0.4s8.2-0.6,12-0.9c0-3.9-1.6-6.6-4.8-8.2c-2.5-1-5-2.1-7.5-3.2
			c-0.8,0.7-1.7,1.5-2.8,2.5c-1.1,1-2.3,1.5-3.7,1.5c-2.8,0-4.6-0.8-5.5-2.5c-0.8-1.7-1.2-3.6-1.2-5.7c0-3.2,1.1-5.5,3.4-6.9
			s5.1-2.2,8.4-2.2c6.3,0,11.6,3,16,9c4.4,6,7.7,9.9,10,11.7c2.3,1.8,5.3,3.1,9,3.7c3.7,0.7,7.2,1.1,10.5,1.4v10.9h-3.6
			c-0.5,0-2.8-0.2-7.1-0.5s-8.1-0.5-11.7-0.5c-10.7,0-18.2,0.2-22.6,0.4c-4.4,0.3-8.5,0.4-12.2,0.4l-4,0.1L247.9,712.7L247.9,712.7z
			"/>
	</g>
	<g>
		<path class="st2" d="M331.3,702.8c0,5.8-0.8,11.5-2.3,17.1c-1.5,5.7-4.5,8.5-8.8,8.5c-0.6,0-1.6-0.8-3.1-2.4
			c-1.5-1.6-2.7-2.4-3.7-2.4h-7.2v-10.9h10c1,0,1.9,0.3,2.8,0.9c0.9,0.6,1.6,1,2.2,1.4c0.2-3,0.4-6.4,0.6-10
			c0.2-3.7,0.3-7.1,0.3-10.2c0-3.8-0.3-7.2-1-10.1s-1.2-5.2-1.5-6.8c-0.3-1.6-1.6-4.2-3.9-7.9c-2.2-3.7-3.4-6.9-3.4-9.7s1-5.1,3-7
			c2-1.9,4.1-2.9,6.2-2.9c1.4,0,2.7,1,4,2.9c1.3,1.9,2,4.1,2,6.4c0,0.8-0.1,1.9-0.3,3.3s-0.2,2.4-0.2,2.9c0,3.8,0.4,8,1.2,12.7
			c0.8,4.7,1.4,7.9,1.6,9.6s0.5,4,0.9,6.8S331.3,700.3,331.3,702.8L331.3,702.8z"/>
	</g>
	<g>
		<path class="st2" d="M341.4,670.6c-0.3-1.9-0.9-3.4-1.8-4.5c-0.9-1-1.8-2.2-2.7-3.3c-0.4-3.3,0.7-6.4,3.1-9.1s5-4.1,7.7-4.1
			c2,0,3.3,0.9,4.1,2.6c0.8,1.7,1.1,3.2,0.9,4.3c-0.5,1.8-1.1,3.7-1.6,5.8s-0.9,4.3-0.9,6.7c0,4.9,0.5,11.2,1.6,18.8
			s1.6,13.5,1.6,17.5c0,3.2-1.9,7.7-5.5,13.7c-3.7,5.9-8.6,9.8-14.7,11.5c3.3-4.1,5.6-7.3,7-9.7s2.2-4.8,2.8-7.1
			c0.5-2.3,0.9-4.3,1-5.9c0.1-1.6,0.2-3.2,0.2-4.7c0-1.4-0.1-3.1-0.2-5.2c-0.1-2.1-0.3-4-0.4-5.8L341.4,670.6L341.4,670.6z"/>
	</g>
	<g>
		<path class="st2" d="M383.7,661.8c0-2.3,0.6-3.8,1.9-4.4s2.7-1,4.5-1c1.9,0,3.2,0.3,4,0.8c0.8,0.5,1.6,1.8,2.4,3.7
			c1-2.3,2-4,3-4.9s2.8-1.4,5.1-1.4c1.6,0,2.9,0.8,4,2.3c1.1,1.5,1.6,2.9,1.6,4c0,1.6-0.8,2.9-2.3,3.9c-1.5,1-3.2,1.5-5.1,1.5
			c-1.7,0-2.9-0.4-3.6-1.2c-0.8-1-1.4-1.9-1.8-2.5c-2.1,2.7-3.7,4.2-4.7,4.7c-1,0.5-2.2,0.8-3.5,0.8c-1.4,0-2.6-0.6-3.7-1.7
			C384.3,665.3,383.7,663.8,383.7,661.8L383.7,661.8z M429,723.6l2,0.1h-5c-3.8,0-6.9,1.2-9.1,3.6s-5.8,3.6-10.9,3.6
			c0.3-0.9,1.2-2.2,2.8-3.7c1.5-1.5,2.5-2.7,2.9-3.5c-0.6-0.1-1.2-0.1-2-0.1h-1.6c-2.8,0-4.5,0-5.2,0.1s-1.2,0.1-1.6,0.3
			c-3-0.4-5.9-1.5-8.8-3.3c-2.9-1.7-4.4-6-4.4-12.6c0-6.2,2.4-10.7,7.1-13.3c5.5-1.5,11.1-3,16.7-4.5c0.3-0.7,0.3-1.8,0-3.2
			c-0.4-1.5-0.7-2.6-1.1-3.5s-1.6-1.9-3.5-3.1s-2.9-2.4-2.9-3.5c0-2.9,0.8-4.7,2.3-5.5c1.5-0.8,3.5-1.1,5.8-1.1
			c2.6,0,4.8,1.1,6.6,3.3s2.6,5.1,2.6,8.7c0,2.4,0,4.7-0.1,7.1c-0.1,2.4-0.1,4.8-0.1,7.3v7.5c0.2,3.8,0.5,6.7,0.9,8.6h6.5V723.6
			L429,723.6z M399.5,709.8c0,1.1,0.6,1.8,1.8,2.2s2.6,0.5,4.4,0.5c1.7-0.1,2.9-0.1,3.4-0.1c3.2,0,4.9-1.2,4.9-3.6l-0.2-1.9
			l-0.5-5.3c0-1.4-0.8-2-2.5-2c-1.4,0-3,0.4-4.8,1.2s-3.2,1.5-4,2.3c-0.8,0.7-1.4,1.7-1.8,2.9C399.6,707,399.5,708.3,399.5,709.8
			L399.5,709.8z"/>
	</g>
	<g>
		<path class="st2" d="M425.9,712.7h3.4c2.4-0.4,4.9-0.5,7.5-0.5c2.9,0,5.4,0.2,7.6,0.8c2.2,0.5,4.2,1.4,5.9,2.8
			c0.9-2.9,1.3-4.8,1.3-5.7c0-1.1-0.7-1.7-2.2-1.7c-4.4,0-8.1-0.7-11.1-2.1c-3-1.4-4.5-3.8-4.5-7.2c0-4,1.5-8.2,4.6-12.5
			c3.1-4.3,5.8-6.7,8.1-7c2.3-0.3,3.8-0.5,4.4-0.5c3.3,0,6.1,1.6,8.3,4.8c2.2,3.2,3.5,6.4,4,9.6c0.4,3.2,0.7,5.3,0.8,6.5
			c0.1,1.2,0.1,2.2,0.1,3c0,3.5-0.3,6.9-0.9,10c-0.6,3.1-1.5,5.8-2.9,8.2c-1.3,2.4-2.3,3.9-3,4.7c-0.7,0.7-1.7,1.2-3,1.4
			c-1.8,0.3-3.6,0-5.4-0.9c-2.1-1.2-4.2-2.4-6.2-3.6c-1.3,0.2-3.4,0.3-6.2,0.5c-2.8,0.2-5.6,0.3-8.2,0.3l-2.4,0.2L425.9,712.7
			L425.9,712.7z M430.1,665.6c0-1.2,0.6-2.5,1.8-3.7s2.7-1.8,4.6-1.8s3.4,0.5,4.2,1.4s1.2,2.3,1.2,4.1c0,1.6-0.5,3-1.6,4.4
			c-1.1,1.3-2.6,2-4.7,2c-1.1,0-2.2-0.7-3.5-2S430.2,667.1,430.1,665.6L430.1,665.6z M445.4,694c-0.5,1.2-0.7,2.1-0.7,2.9
			c0,1,0.8,1.8,2.5,2.6s3.1,1.2,4.4,1.2c1.6,0,2.4-1,2.4-2.9c0-0.6-0.1-1.4-0.3-2.4s-0.9-2.2-2.1-3.5c-1.2-1.3-2.1-2-2.9-2
			c-0.5,0-1.1,0.3-1.6,0.9S446,692.5,445.4,694L445.4,694z"/>
	</g>
	<g>
		<path class="st2" d="M500.3,723.6c-0.5-0.2-1.1-0.2-1.7-0.3c-0.6,0-2.1-0.1-4.2-0.1c-1.7,0-2.9,0.2-3.6,0.5s-2.1,1.9-4,4.5
			c-2,2.6-4.7,4.6-8.3,5.8l-0.5-1.7c0.7-1.4,2.1-3.5,4.1-6.1c1.5-3,2.2-7.6,2.2-13.7l-6.1-34.1c-1.3-2.2-2.6-4.5-4-7s-2.1-5-2.1-7.4
			c0-3.8,1.1-6.7,3.2-8.6c2.1-1.9,4.2-2.9,6.1-2.9c1.5,0,2.7,0.8,3.6,2.3s1.3,3.4,1.3,5.5c0,1.4-0.3,3.9-0.9,7.4
			c-0.6,3.5-0.9,5.6-0.8,6.5c1,6.7,2,12.8,3.3,18.6s2.2,10.2,3,13.2c0.8,3,1.4,5.2,1.7,6.7h7.8L500.3,723.6L500.3,723.6z"/>
	</g>
	<g>
		<path class="st2" d="M496.8,712.7l4.4,0.1c4.5,0,8.9-0.1,13-0.4c4.2-0.3,8.2-0.6,12-0.9c0-3.9-1.6-6.6-4.8-8.2
			c-2.5-1-5-2.1-7.5-3.2c-0.8,0.7-1.7,1.5-2.8,2.5c-1.1,1-2.3,1.5-3.7,1.5c-2.8,0-4.6-0.8-5.5-2.5c-0.8-1.7-1.2-3.6-1.2-5.7
			c0-3.2,1.1-5.5,3.4-6.9s5.1-2.2,8.4-2.2c6.3,0,11.6,3,16,9s7.7,9.9,10,11.7c2.3,1.8,5.3,3.1,9,3.7c3.7,0.7,7.2,1.1,10.5,1.4v10.9
			h-3.6c-0.5,0-2.8-0.2-7.1-0.5s-8.1-0.5-11.7-0.5c-10.7,0-18.2,0.2-22.7,0.4c-4.4,0.3-8.5,0.4-12.2,0.4l-4,0.1L496.8,712.7
			L496.8,712.7z"/>
	</g>
	<g>
		<path class="st2" d="M633.7,728c-1.8,0-3.3-1.1-4.5-3.4s-2.4-3.4-3.7-3.4c-1.6,0-2.9,0.3-4,1c-1,0.7-5.7,1-14,1
			c-6.2,0-10.8-0.1-13.7-0.3c-3-0.2-5.5-0.3-7.6-0.5c-1.4,0-2.8,0.1-4.2,0.3c-1.3,0.2-2.5,0.4-3.4,0.6c-0.9,0.2-2.1,0.9-3.5,2.2
			c-1.4,1.3-3,1.9-4.8,1.9s-3.2-0.6-4.1-1.9c-0.8-1.3-1.5-1.9-2.1-1.9h-6.7c-1.2,0-2,0-2.3-0.1v-10.9l5.4,0.1c0-3.2,0.2-5.5,0.7-7.1
			c0.4-1.5,1.2-2.3,2.4-2.3c2.7,0,4.7,2.8,5.8,8.3c2.4-2.8,5.1-6.1,8.3-9.9c3.2-3.8,7.4-7.2,12.7-10.1c5.3-3,12-4.5,20.1-4.5
			c7.2,0,13.4,2.4,18.6,7.3s8.2,10.9,8.8,18.2c-0.1,3.4-0.3,6.8-0.8,10.2C636.6,726.3,635.5,727.9,633.7,728L633.7,728z M626,710.2
			c-1.1-3-3.5-5.6-7.3-8c-3.8-2.3-6.8-3.7-9.3-4c-2.5-0.3-4.1-0.4-4.8-0.4c-3.8,0-7.8,1.2-12.1,3.7c-4.3,2.5-7.8,5.8-10.5,10.2
			c1.3,0.4,3,0.7,5,0.9c2.1,0.2,5.5,0.3,10.1,0.3c3.9,0,8.8-0.2,14.9-0.7S622.6,711,626,710.2L626,710.2z"/>
	</g>
</g>
<g class="st0">
	<path class="st1" d="M134.5,384.3c0-9.5-7.8-10.1-13-11.4v-1.6h99.4v1.6c-5.2,1.3-13,2-13,11.4v140.8c0,45.6-29.3,76-73.3,76
		c-28,0-49.5,0-56.4,0v-60.3h1.6c13.4,17.3,36.2,51.8,54.8,51.8c30.6,0,0-67.5,0-67.5V384.3z"/>
	<path class="st1" d="M353.9,604.3c-158.7,0-161-236.3,0-236.3C514.9,368,512.6,604.3,353.9,604.3z M337.6,377.1
		c-61.9,0-29.7,218.1,32.6,218.1S399.5,377.1,337.6,377.1z"/>
	<path class="st1" d="M597.7,368c32.9,0,51.2,1,80.2,3.3v66.8h-1.6c-34.6-33.2-59-61.9-89.6-61.9c-19.2,0-31.3,11.7-31.6,26.4
		c-1,48.9,132.7,58.3,133.3,136.3c0.3,46.3-33.2,65.5-114.1,65.5c-32.9,0-58.3-1.6-87-3.3v-66.8h1.6c36.8,33.2,66.5,61.6,100.4,61.6
		c21.5,0,34.2-11.7,34.6-28c0.7-47.9-135.9-65.8-136.6-137.2C486.9,386.2,518.8,368,597.7,368z"/>
</g>
</svg>
