<?xml version="1.0" encoding="utf-8"?>
<!-- Generator: Adobe Illustrator 26.3.0, SVG Export Plug-In . SVG Version: 6.00 Build 0)  -->
<svg version="1.1" id="Layer_1" xmlns="http://www.w3.org/2000/svg" xmlns:xlink="http://www.w3.org/1999/xlink" x="0px" y="0px"
	 viewBox="0 0 4000 4000" style="enable-background:new 0 0 4000 4000;" xml:space="preserve">
<style type="text/css">
	.st0{clip-path:url(#SVGID_00000003784354772325956440000013212684052084935836_);fill:url(#SVGID_1_);}
	.st1{fill:#FFFFFF;}
	
		.st2{clip-path:url(#SVGID_00000041277659808534091050000011074968962785761453_);fill:url(#SVGID_00000022524434982415473580000001166876035598644924_);}
	
		.st3{clip-path:url(#SVGID_00000177484895795656239290000011501098619144701608_);fill:url(#SVGID_00000129903634062405400510000003101287255623924901_);}
	
		.st4{clip-path:url(#SVGID_00000142883107029827012200000000962851242987946401_);fill:url(#SVGID_00000073682773424980581100000014213561103946540978_);}
	
		.st5{clip-path:url(#SVGID_00000121272062273090109290000005020592158451651773_);fill:url(#SVGID_00000075145577717807000150000009937752393698414483_);}
	.st6{fill-rule:evenodd;clip-rule:evenodd;fill:#CCCCCC;}
	
		.st7{clip-path:url(#SVGID_00000048470945658309566910000004721296985664684179_);fill:url(#SVGID_00000075150276036683020570000004018349004795333820_);}
	
		.st8{clip-path:url(#SVGID_00000006671958296042952550000007454885595865650061_);fill:url(#SVGID_00000148640766295171461060000016051419609532886450_);}
	.st9{fill-rule:evenodd;clip-rule:evenodd;fill:#D3D3D3;}
	.st10{opacity:0.47;fill-rule:evenodd;clip-rule:evenodd;fill:#CCCCCC;}
	.st11{font-family:'AvenirLTStd-Black';}
	.st12{font-size:523.8206px;}
</style>
<g>
	<defs>
		<path id="SVGID_22_" d="M2713.8,2377.6c-44.2,80.7-102.3,151.5-170.8,209.8c-63.8,54.4-136.5,97.7-215,128c6,17.4,9.3,36,9.3,55.5
			c0,46.6-18.9,88.8-49.5,119.4c-30.5,30.6-72.8,49.5-119.4,49.5s-88.8-18.9-119.4-49.5c-30.6-30.5-49.5-72.8-49.5-119.4
			c0-2.7,0.1-5.3,0.2-8c-87.4-7-172.5-29.4-251.6-65.8c-85.9-39.5-164.6-95.4-231-165.9c-21.6-6-43.2-13.3-64.8-21.8
			c-46.9,11.4-99.7,9.4-148.1,8.6l10.5-34.8c3-10,5.3-20.2,6.8-30.4c1-6.4,1.7-12.8,2.1-19c-45.5-1.5-92.4-14.9-120.4-33.5
			l21.8-23.7c9.8-10.7,19.3-21.9,28.5-33.6c2.2-2.8,4.3-5.6,6.4-8.3c-40.8-8.2-77.7-25.6-117.9-47.3l35.2-25.8
			c15.1-11.1,29.5-23.5,43.1-37.1h0.1c11.7-11.7,22.7-24.3,32.9-37.7c-0.9-30.2-0.8-66,1.3-104.1
			c-79.1-28.4-141.8-104.3-188.2-227.7c-47.1-125.2-78.2-301.2-93.4-527.9v-0.5c-14.2-296.2,10.2-496.9,64.3-611.4
			c32.1-68,75.2-107.6,127.6-120.5c51.5-12.7,109.7,1.4,173.2,40.6c121.5,75.2,267.1,246.5,424.6,500.7
			c135.7-64.6,293.6-73.8,370.9-67.7c30.3-203.1,157.4-496.7,226-583.1c133.8-168.3,291.9-162.7,458.3,295.7l0.3,1.1
			c214.9,673.3,224.5,1034.2,28.9,1082.6c17.7,44.8,31.3,86.1,39.6,116.3c20.3,6.3,39.4,12.3,55.3,17.7l22.9,7.8l-4.7,23.6
			c-5.9,29.8-20.4,54.7-41,73.4l0,0c37.6,7.7,78.3,5,116.6,4.9c-28.1,39.3-92.6,107.3-162.6,131.6c8.1,5.8,16.4,11,25,15.7
			l51.4,27.8c-63.4,25.9-115.1,47.1-166.8,41.1l0.5,0.6C2758.5,2345.5,2735.6,2363.1,2713.8,2377.6"/>
	</defs>
	<clipPath id="SVGID_00000181798173029080725390000007268269294877054365_">
		<use xlink:href="#SVGID_22_"  style="overflow:visible;"/>
	</clipPath>
	<linearGradient id="SVGID_1_" gradientUnits="userSpaceOnUse" x1="2378.3245" y1="3305.0542" x2="1663.3757" y2="128.8018">
		<stop  offset="0" style="stop-color:#FFF5F0"/>
		<stop  offset="0.4191" style="stop-color:#FFCC81"/>
		<stop  offset="0.7817" style="stop-color:#FF6B00"/>
	</linearGradient>
	
		<rect x="958.9" y="316.9" style="clip-path:url(#SVGID_00000181798173029080725390000007268269294877054365_);fill:url(#SVGID_1_);" width="2084" height="2622.9"/>
</g>
<path class="st1" d="M1714.1,1162.3c-152.4-245.6-291.2-409.9-404.9-480.2c-50.4-31.2-94.6-43-131.1-33.9
	c-35.7,8.8-66.3,38.6-90.9,90.5c-50.4,106.5-72.8,298.3-59.2,584.7c14.8,221.4,44.8,392.1,89.9,512.1
	c37.4,99.5,84.5,162.6,141.2,189.5c9.8-92.6,32.7-189.4,81-248.6c-36.7,122.3-43.5,347.7-27.3,475.4l-48,6.1
	c-1.8,1.9-3.6,3.7-5.5,5.6l0.1,0.1c-4.7,4.7-9.5,9.3-14.5,13.8c32.7,27.2,88.9,55,130.8,55.7c-18.3,3.7-35.4,5.8-51.5,6.5
	c-8.9,13.2-18,25.8-27.3,37.6c-2.5,3.2-5.1,6.4-7.7,9.6c30.3,15.3,104.3,33.6,135.8,20.6c-12.4,10.3-28.3,17.3-46,21.5
	c-0.3,11-1.2,21.6-2.8,32l-0.3,1.8c47.6-3.3,144.4-16.2,185.8-34.9c-10.6,20.3-23.8,36.1-38.9,48.4c100.9,33,186.3,41.2,254.5,36.7
	c-30,15-59.8,24.7-89.5,30c140.2,61,291.8,81.5,438.6,63.3c4.7-0.6,9.3-1.2,14-1.9c2.4-0.4,4.8-0.8,7.3-1.1
	c149.3-22.3,292.9-84.7,413.5-185.2c-24.5-4.3-50.8-13.6-80.3-28.7c82.8-8.6,172.2-40.8,240-86.5c-18.7-11-37.9-26.4-58.2-47.3
	c51.9,18.2,99.4,43,159.8,14.6c-8.8-7.5-17.3-15.6-25.3-24.3c-20-4.7-39.6-15-58-32.8c54.4,4.6,134.5-24.8,166.2-56.3
	c-19.6-4.2-38.7-10.3-56.9-18c-17.8,3.8-37,5-57,3.3c15.4-3.1,94.8-63.1,107.3-100.1c-23.8-7.7-118-32.7-143.3-103.9
	c19.3,7.4,43.5,15.3,69,23.4c-29.3-99.3-79.8-222.7-151.6-370.4c57.5,36,112.1,129.8,152.8,221.6
	c166.3-30.2,146.5-367.9-59.3-1013.1c-140.7-387.4-263.6-405.7-363.3-280.2c-113.7,143-213.1,472.3-270.8,682.2
	c-4.8-22.2-6-48.8-4.3-78.5c-172.3-13.5-396.9,44.6-534.2,148.9C1626.2,1226.5,1667.9,1190.5,1714.1,1162.3"/>
<g>
	<defs>
		<path id="SVGID_25_" d="M2291.7,2088.6c1.5,11.2,2.2,22.6,2.1,34c-0.1,6.9-0.4,13.7-1.1,20.4c13.6,2.5,27.1,7.1,39.9,14.1
			c38.7,21.1,59.9,53.3,66.8,88.2c4.7,23.8,2.5,48.8-5.4,72.1c-7.8,23.1-21.3,44.8-39.4,62.2c-29.6,28.6-71.4,46.1-120.7,40.7
			c-33.1-3.6-63-17.8-86.3-39.2c-11.9-11-21.4-20.8-28.6-32.1c-20.4,5.6-41.5,8.4-62.8,8.4c-27.6,0-55.3-4.8-81.8-14.6
			c-39.7-14.6-74.1-39.4-100.4-71c-22.4-27-38.9-58.9-47.7-93.6c-57.8-24-93.9-85.5-73.1-142.1c15,55.8,64.8,95.5,122.6,97.4
			c29,1,56.6-7.5,79.2-23.1c22.6-15.6,40.4-38.3,49.8-65.8l16.9-49.2l31.3,41.6c18.4,24.5,43.7,41.5,71.8,49.9
			c28,8.3,58.6,7.9,87.4-2.5c57.7-20.9,95-77.1,91.9-138.4C2326.3,1995.3,2318.6,2049.4,2291.7,2088.6"/>
	</defs>
	<clipPath id="SVGID_00000018949066148760509090000005119809828552460731_">
		<use xlink:href="#SVGID_25_"  style="overflow:visible;"/>
	</clipPath>
	
		<linearGradient id="SVGID_00000183970041701408291720000014165382967711421370_" gradientUnits="userSpaceOnUse" x1="2322.9968" y1="3317.5093" x2="1608.0471" y2="141.2533">
		<stop  offset="0" style="stop-color:#FFF5F0"/>
		<stop  offset="0.4191" style="stop-color:#FFCC81"/>
		<stop  offset="0.7817" style="stop-color:#FF6B00"/>
	</linearGradient>
	
		<rect x="1732.5" y="1946.2" style="clip-path:url(#SVGID_00000018949066148760509090000005119809828552460731_);fill:url(#SVGID_00000183970041701408291720000014165382967711421370_);" width="671.5" height="479.6"/>
</g>
<path class="st1" d="M2034.9,2667.8c-115.5,1.5-231.8-19.3-342.1-63.1c25.3,15.9,51.5,30,78.5,42.4c75.4,34.7,156.9,55.7,240.4,61.5
	C2017.5,2693.8,2025.3,2680.1,2034.9,2667.8"/>
<path class="st1" d="M2153.5,2658.3l-2.9,0.4c-24.2,3.8-45.8,15.3-62.3,31.9c-20.5,20.5-33.3,48.9-33.3,80.3s12.7,59.8,33.3,80.3
	c20.5,20.5,48.9,33.3,80.3,33.3c31.4,0,59.8-12.7,80.3-33.3c20.5-20.5,33.3-48.9,33.3-80.3s-12.7-59.8-33.3-80.3
	c-20.5-20.5-48.9-33.3-80.3-33.3C2163.4,2657.3,2158.4,2657.7,2153.5,2658.3"/>
<path class="st1" d="M2301.3,2666.6c75.5-28.2,145.3-69.3,206.1-121c25.7-21.9,49.8-45.6,72.1-71.2
	c-94.1,74.6-200.4,128.1-312.2,159.7c7.3,5.3,14.2,11.2,20.6,17.5C2292.7,2656.3,2297.1,2661.3,2301.3,2666.6"/>
<g>
	<defs>
		<path id="SVGID_28_" d="M1481.5,1351.2l0,31.1c-46.8-5.6-79.7-9.9-125.5,10.9c5.9,41.6,39.7,90.5,74.1,115.2
			c-29.9-0.2-83.8,1.4-119.1,29.7c-2,30.2,11.7,67.2,27.7,89c-49.1-7.1-85.9-91.1-92.1-125.4c34.1-12.6,62.4-22.2,99.4-25.7
			c-30.4-35.5-43.3-64.1-59.3-106.4c31.1-19.4,54.9-33.5,92-41.8c15.4-3.4,31.2-5.3,47-5.6c-4.1-87-26.4-171.3-64.3-247.8
			c-42-84.9-103.4-160.3-180.7-219.4C1424.3,963.1,1481.4,1214.4,1481.5,1351.2"/>
	</defs>
	<clipPath id="SVGID_00000157266940236231461290000001587420214705491122_">
		<use xlink:href="#SVGID_28_"  style="overflow:visible;"/>
	</clipPath>
	
		<linearGradient id="SVGID_00000129171087064200497340000002816658682217526672_" gradientUnits="userSpaceOnUse" x1="1823.8726" y1="3429.8535" x2="1108.9229" y2="253.5975">
		<stop  offset="0" style="stop-color:#FF00FF"/>
		<stop  offset="1" style="stop-color:#FFFF00"/>
	</linearGradient>
	
		<rect x="1180.8" y="854.9" style="clip-path:url(#SVGID_00000157266940236231461290000001587420214705491122_);fill:url(#SVGID_00000129171087064200497340000002816658682217526672_);" width="300.8" height="772.2"/>
</g>
<g>
	<defs>
		<path id="SVGID_31_" d="M2585.1,653.9c-59.3,77-97.7,185.1-116.4,278.2c-16.8,83.8-16.5,170.9,2,256c53.9-13.5,93.9-6.2,146.4,9.8
			c-4.5,45-9.9,76.8-29.7,118.1c26-4.4,52.8-5.4,79.7-2.9l23.1,2.1c3.9,46.6-15.3,119.7-64.6,146.4c9.9-23.2,17.6-66.2,11.7-94.7
			c-48.6-11.2-87.1-1-122.7,2.2c28.9-29.9,46.8-93.1,41.8-130.5c-32.1-5.3-65-1.7-95.3,10.4l-28.9,11.6l-8-30.1
			c-27.3-102.3-30-208.1-9.7-309.1C2429.7,845.7,2503.1,657.3,2585.1,653.9"/>
	</defs>
	<clipPath id="SVGID_00000156580030109286534130000014669076233739661963_">
		<use xlink:href="#SVGID_31_"  style="overflow:visible;"/>
	</clipPath>
	
		<linearGradient id="SVGID_00000089570052546595000090000017645209561293277599_" gradientUnits="userSpaceOnUse" x1="3017.7285" y1="3161.1287" x2="2302.7786" y2="-15.129">
		<stop  offset="0" style="stop-color:#FF00FF"/>
		<stop  offset="1" style="stop-color:#FFFF00"/>
	</linearGradient>
	
		<rect x="2394.3" y="653.9" style="clip-path:url(#SVGID_00000156580030109286534130000014669076233739661963_);fill:url(#SVGID_00000089570052546595000090000017645209561293277599_);" width="299.9" height="807.7"/>
</g>
<g>
	<defs>
		<path id="SVGID_34_" d="M1990.1,1699.7c107.2-13.3,200.9,30.7,209.2,98.1c8.3,67.5-71.8,132.9-179,146.1
			c-107.2,13.3-200.9-30.7-209.2-98.1C1802.7,1778.4,1882.8,1713,1990.1,1699.7"/>
	</defs>
	<clipPath id="SVGID_00000046315303306169170690000006564959519880181129_">
		<use xlink:href="#SVGID_34_"  style="overflow:visible;"/>
	</clipPath>
	
		<linearGradient id="SVGID_00000032622876056823964320000010506671775706062752_" gradientUnits="userSpaceOnUse" x1="1895.9236" y1="2011.0496" x2="2114.4121" y2="1632.6166">
		<stop  offset="0" style="stop-color:#FFF5F0"/>
		<stop  offset="0.4191" style="stop-color:#FFCC81"/>
		<stop  offset="0.7817" style="stop-color:#FF6B00"/>
	</linearGradient>
	
		<rect x="1802.7" y="1686.4" style="clip-path:url(#SVGID_00000046315303306169170690000006564959519880181129_);fill:url(#SVGID_00000032622876056823964320000010506671775706062752_);" width="404.9" height="270.8"/>
</g>
<path class="st1" d="M2072.2,2315.6c10.8-0.9,21.5-2.6,32.1-5.3l0,0l39.4-12.8c4.6,23.7,15.2,37.8,32.1,53.4
	c16.9,15.6,38.7,25.9,62.6,28.5c35.9,3.9,66.3-8.7,87.7-29.4c13.2-12.8,23.1-28.6,28.8-45.6c5.6-16.7,7.2-34.4,3.9-51.1
	c-4.6-23.5-19.2-45.3-45.9-59.9c-21.3-11.6-45.3-13.9-67.2-8.2c-13.3,3.5-25.8,10-36.5,19.2c34.1,15.3,57.1,45.6,52.6,76.5
	c-20.4-40.3-76.8-54.4-120.4-42.7c-21.8,5.9-40,18.9-52.4,36.1C2080.3,2286.4,2074.5,2300.5,2072.2,2315.6"/>
<path class="st1" d="M2162.4,2194.2c18.5-24.7,44.4-41.5,72.7-48.9c5.3-1.4,10.7-2.5,16.1-3.2c0.6-5.3,1-10.6,1.2-15.9
	c-6.7,4.1-13.9,7.5-21.4,10.3c-40.3,14.6-82.9,15.2-121.9,3.6c-25.6-7.6-49.7-20.6-70.5-38.3c-13.6,21.6-31.4,40-52.1,54.2
	c-32.2,22.2-71.3,34.3-112.3,32.9l-1.3-0.1c7.7,20.8,18.9,40.1,32.9,56.9c21.6,26,50,46.4,82.9,58.5c13.7,5.1,27.8,8.5,41.9,10.4
	c2.7-23.5,11.5-45.5,24.9-64.2c17.9-24.8,44-43.6,75.2-52C2141.4,2195.4,2152.1,2194.1,2162.4,2194.2"/>
<path class="st6" d="M2061.3,2808.2c-0.6-55.8,39.4-103.7,94.5-113c55-9.3,108.6,22.8,126.4,75.7c0-45.2-26.7-86.1-68.1-104.2
	c-41.4-18.1-89.6-9.9-122.7,20.8C2058.2,2718.2,2046.4,2765.6,2061.3,2808.2"/>
<g>
	<defs>
		<path id="SVGID_37_" d="M2270.5,1455.2c53.7,0,97.2,43.5,97.2,97.2c0,53.7-43.5,97.2-97.2,97.2c-53.7,0-97.2-43.5-97.2-97.2
			C2173.3,1498.7,2216.8,1455.2,2270.5,1455.2"/>
	</defs>
	<clipPath id="SVGID_00000114781385646608116380000013647162304491693952_">
		<use xlink:href="#SVGID_37_"  style="overflow:visible;"/>
	</clipPath>
	
		<linearGradient id="SVGID_00000091738135449898493460000005143987644748162474_" gradientUnits="userSpaceOnUse" x1="2651.1428" y1="3243.6453" x2="1936.1943" y2="67.3943">
		<stop  offset="0" style="stop-color:#FFF5F0"/>
		<stop  offset="0.4191" style="stop-color:#FFCC81"/>
		<stop  offset="0.7817" style="stop-color:#FF6B00"/>
	</linearGradient>
	
		<rect x="2173.3" y="1455.2" style="clip-path:url(#SVGID_00000114781385646608116380000013647162304491693952_);fill:url(#SVGID_00000091738135449898493460000005143987644748162474_);" width="194.3" height="194.3"/>
</g>
<g>
	<defs>
		<path id="SVGID_40_" d="M1681.5,1626.7c-70.8,38-109.9,116.3-97.9,195.7c21.4-97.6,99-172.9,197.2-191.3
			c-66-49-152.1-61.6-229.3-33.6C1596.8,1593.6,1642.2,1603.8,1681.5,1626.7"/>
	</defs>
	<clipPath id="SVGID_00000084496921070442604040000014963486132771352728_">
		<use xlink:href="#SVGID_40_"  style="overflow:visible;"/>
	</clipPath>
	
		<linearGradient id="SVGID_00000029765014014031253410000012058238341455302308_" gradientUnits="userSpaceOnUse" x1="2045.2205" y1="3380.0342" x2="1330.2709" y2="203.7784">
		<stop  offset="0" style="stop-color:#FFF5F0"/>
		<stop  offset="0.4191" style="stop-color:#FFCC81"/>
		<stop  offset="0.7817" style="stop-color:#FF6B00"/>
	</linearGradient>
	
		<rect x="1551.5" y="1569.5" style="clip-path:url(#SVGID_00000084496921070442604040000014963486132771352728_);fill:url(#SVGID_00000029765014014031253410000012058238341455302308_);" width="229.3" height="252.9"/>
</g>
<path class="st9" d="M1178.2,648.2c-35.7,8.8-66.3,38.6-90.9,90.5c-38.3,81-60.5,211.4-62.9,395.3c37.2-672.5,432.2-220,623.9,77.1
	c20.4-18.4,42.5-34.6,65.8-48.8c-152.4-245.6-291.2-409.9-404.9-480.2C1258.8,650.9,1214.7,639.2,1178.2,648.2"/>
<path class="st9" d="M2402.9,519.5c-113.7,143-213.1,472.3-270.8,682.2c154.4-370.5,392.8-1010,663.7-307.3
	c-9.4-30.8-19.2-62.4-29.5-94.7C2625.6,412.2,2502.6,394,2402.9,519.5"/>
<path class="st10" d="M2750.4,1231.9c8.8-214.9-209-245.4-165.3-578c-59.3,77-97.7,185.1-116.4,278.2c-16.8,83.8-16.5,170.9,2,256
	c53.9-13.5,93.9-6.2,146.4,9.8c-4.5,45-9.9,76.8-29.7,118.1c26-4.4,52.8-5.4,79.7-2.9l23.1,2.1c3.2,37.8-8.8,92.9-39.7,126.7
	C2710.7,1388.7,2747.1,1313,2750.4,1231.9"/>
<path class="st9" d="M1180.8,854.9c154.1,249-72,349.4-12.8,571.1c21.9,82,75.9,151.6,149.7,193.1c-38.3-23.2-65.7-88.3-71-117.5
	c34.1-12.6,62.4-22.2,99.4-25.7c-30.4-35.5-43.3-64.1-59.3-106.4c31.1-19.4,54.9-33.5,92-41.8c15.4-3.4,31.2-5.3,47-5.6
	c-4.1-87-26.4-171.3-64.3-247.8C1319.5,989.4,1258.1,914,1180.8,854.9"/>
<path class="st9" d="M1340.2,1776.5c-141.1,85.8-243.4-41.7-306.7-382.4c16.2,187.4,44.3,334.6,84.6,441.5
	c37.4,99.5,84.5,162.6,141.2,189.5C1269,1932.4,1291.9,1835.7,1340.2,1776.5"/>
<path class="st9" d="M2883.4,1216.1c27.4,328.9-42.8,453.9-210.7,375.1c57.5,36,112.1,129.8,152.8,221.6
	C2951.3,1789.9,2970.7,1591,2883.4,1216.1"/>
<path class="st9" d="M1414.2,2268.7c-83.5-149.7-109.8-324.6-74.1-492.2c-36.7,122.3-43.5,347.7-27.3,475.4l-48,6.1
	c-1.8,1.9-3.6,3.7-5.5,5.6l0.1,0.1c-4.7,4.7-9.5,9.3-14.5,13.8c32.7,27.2,88.9,55,130.8,55.7c-18.3,3.7-35.4,5.8-51.5,6.5
	c-8.9,13.2-18,25.8-27.3,37.6c-2.5,3.2-5.1,6.4-7.7,9.6c30.3,15.3,104.3,33.6,135.8,20.6c-12.4,10.3-28.3,17.3-46,21.5
	c-0.3,11-1.2,21.6-2.8,32l-0.3,1.8c47.6-3.3,144.4-16.2,185.8-34.9c-10.6,20.3-23.8,36.1-38.9,48.4c100.9,33,186.3,41.2,254.5,36.7
	c-69.8-5-138.2-21.6-202.5-49.2c17.9-25.7,28.9-55.6,31.7-86.8c-45,25-95,40.1-146.4,44c19-17.7,34.6-38.8,46-62.2
	c-44.8,17.1-93.4,21.6-140.6,12.9c34.7-2.9,67.2-18.3,91.3-43.4c-45.2-2.1-88.6-18.6-123.7-47.3
	C1360.7,2280.1,1387.8,2275.9,1414.2,2268.7"/>
<path class="st9" d="M2720.9,2303c-18.7-11-37.9-26.4-58.2-47.3c51.9,18.2,99.4,43,159.8,14.6c-8.8-7.5-17.3-15.6-25.3-24.3
	c-20-4.7-39.6-15-58-32.8c54.4,4.6,134.5-24.8,166.2-56.3c-19.6-4.2-38.7-10.3-56.9-18c-17.8,3.8-37,5-57,3.3
	c15.4-3.1,94.8-63.1,107.3-100.1c-23.8-7.7-118-32.7-143.3-103.9c19.3,7.4,43.5,15.3,69,23.4c-29.3-99.3-79.8-222.7-151.6-370.4
	c36,97.3,62,198,77.8,300.6c-26.8-4.5-52.9-12.4-77.7-23.3c10.1,88.8,71.5,163.4,156.7,190.4c-28.5,41.2-73.3,68.1-123.1,73.8
	c20.4,14.6,42.9,26.2,66.7,34.3c-43.6,6.5-88.1-2-126.3-24c18.1,41,45.1,77.5,79,106.9c-40.9-12.8-79.5-31.8-114.6-56.4
	c0.2,40.4,16.8,79,46,106.9c-53.2,39.7-112.8,69.8-176.4,89C2563.7,2380.9,2653.1,2348.7,2720.9,2303"/>
<path class="st6" d="M2314.7,2223.3c51.5,66.7-20.2,149-98.4,133.2c-32.5-6.6-59.7-28.7-72.7-59.2c4.6,23.7,15.2,37.8,32.1,53.4
	c16.9,15.6,38.7,25.9,62.6,28.5c35.9,3.9,66.3-8.7,87.7-29.4c13.2-12.8,23.1-28.6,28.8-45.6c5.6-16.7,7.2-34.4,3.9-51.1
	c-4.6-23.5-19.2-45.3-45.9-59.9c-21.3-11.6-45.3-13.9-67.2-8.2c-13.3,3.5-25.8,10-36.5,19.2
	C2244,2182.6,2289.6,2190.8,2314.7,2223.3"/>
<text transform="matrix(1 0 0 1 1186.8429 3360.384)" class="st11 st12">PETIF</text>
<text transform="matrix(1.0115 1.911462e-03 -1.911462e-03 1.0115 2619.1392 3360.0652)" class="st11 st12">Y</text>
</svg>
